<?xml version="1.0" encoding="utf-8"?>
<!-- Generator: Adobe Illustrator 16.0.0, SVG Export Plug-In . SVG Version: 6.00 Build 0)  -->
<!DOCTYPE svg PUBLIC "-//W3C//DTD SVG 1.1//EN" "http://www.w3.org/Graphics/SVG/1.1/DTD/svg11.dtd">
<svg version="1.1" id="圖層_1" xmlns="http://www.w3.org/2000/svg" xmlns:xlink="http://www.w3.org/1999/xlink" x="0px" y="0px"
	 width="144.735px" height="265.185px" viewBox="0 0 144.735 265.185" enable-background="new 0 0 144.735 265.185"
	 xml:space="preserve">
<path fill="#F6C700" d="M0,264.941c14.825-43.591,29.65-87.169,44.678-131.368c-11.7,3.226-22.854,6.33-34.528,9.542
	c0.297-1.188,0.397-2.011,0.681-2.821C25.291,97.716,39.772,55.163,54.199,12.598c0.506-1.431,0.972-2.402,2.773-2.673
	c22.126-3.238,44.212-6.559,66.318-9.879c0.392-0.094,0.782-0.014,1.565-0.026c-13.833,32.457-27.579,64.726-41.5,97.466
	c20.541-1.943,40.556-3.846,61.467-5.83C96.421,149.822,48.477,207.517,0.567,265.185C0.378,265.063,0.202,265.022,0,264.941z"/>
</svg>
